<?xml version="1.0" encoding="UTF-8" standalone="no"?>
<!DOCTYPE svg PUBLIC "-//W3C//DTD SVG 1.1//EN" "http://www.w3.org/Graphics/SVG/1.1/DTD/svg11.dtd">
<svg version="1.1" xmlns="http://www.w3.org/2000/svg" xmlns:xlink="http://www.w3.org/1999/xlink" preserveAspectRatio="xMidYMid meet" viewBox="0 0 1500 300" width="1500" height="300"><defs><path d="M218.4 48.5C221.1 49.6 222.5 52.5 224.3 54.6C236.2 69.3 246.9 85 257.4 100.7C252.3 101.7 247.5 104.1 243.9 107.9C239.5 111.7 236 117.9 229.5 117.9C224.1 117.8 220.7 113.2 217.4 109.6C214.8 106.8 210 109.1 209.6 112.6C208.8 114.9 210.4 116.9 211.7 118.7C213.6 118.3 216.1 117.7 217.5 119.6C221 123.3 224.9 128 230.6 127.6C236.6 127.1 239.7 121.4 243.8 117.7C248.7 113.3 255.4 109.2 262.2 111.2C269.9 113.2 274.3 120.4 280.1 125.2C283.3 128 288.4 128.1 291.8 125.7C296.3 122.6 299.4 117.9 303.8 114.7C308.4 111.1 315 109 320.6 111.7C327.1 114.5 331 120.7 336.2 125.1C338.6 127.4 342.2 126.9 345.2 128.1C348.4 130.5 348 136.4 344.1 137.9C340.5 138.9 336.6 137.7 333.4 136C327.9 132.7 324.2 127.2 319.2 123.2C317 121.4 313.8 120.5 311.2 122.1C305 125.7 301.5 132.5 295.1 135.9C290.1 138.8 284.1 138.6 278.8 136.9C283.5 145.6 287.5 154.7 290.7 164C287.6 165.8 283.5 166.2 280.6 163.8C274.3 159 269.9 151 261.6 149.2C254.9 147.4 248.6 151.4 244.1 155.9C240.1 159.6 236.6 164.7 230.9 165.8C225.1 166.4 221.1 161.7 217.5 157.9C215.3 155.2 210.7 156.5 209.8 159.7C208.7 162.2 210.2 164.6 211.6 166.6C213.3 166.3 215.3 165.4 216.7 166.8C219.8 169.3 222.1 173 225.9 174.7C229.8 176.2 234.3 175 237.2 172.1C242.4 167.3 247 161 254.2 159.2C260 157.3 266.1 160.2 270.4 164.1C273.9 167.2 276.7 171.1 280.6 173.9C284.3 176.6 289.7 175.9 293 172.9C298.4 168.2 302.8 162 309.8 159.6C314.7 157.7 320.3 159 324.5 162.1C329.5 165.4 332.5 170.8 337.4 174.1C340.2 176 344.8 174.6 346.5 178C348.7 181.4 346.2 186.8 341.9 186.5C334 186.7 328.2 180.6 323.3 175.2C320.5 172.3 316.8 168.3 312.3 170.2C305.9 173.4 302.1 180.1 296 183.9C297 192.5 296.2 201.1 294.7 209.6C291.4 212.7 286.3 215.1 281.9 212.5C275.9 208.6 272.2 201.9 265.7 198.6C260.2 195.5 253.1 196.6 248.2 200.4C242.1 204.4 238.5 212.4 230.7 213.5C224.6 214.4 221.3 208.5 217.1 205.2C214.3 202.7 210 205.3 209.6 208.6C209.1 210.9 210.6 212.8 211.7 214.6C213.5 214.6 215.8 213.5 217.3 215.1C221 218.4 224.2 223.6 229.8 223.5C236.5 223.6 240.3 217.4 244.7 213.5C249.4 208.9 256.3 205.2 263 207.4C270.6 209.7 274.7 217.1 280.6 221.8C284.1 224.5 289.3 224.2 292.7 221.4C297.7 217.5 301.2 211.7 307.1 208.9C312.2 205.9 318.9 206.1 323.7 209.6C328.6 212.6 331.9 217.4 336.1 221.3C338.4 223.7 341.9 223.4 344.8 224.5C348.9 226.5 348.3 233.5 343.8 234.7C339.6 235.4 335.3 234 331.8 231.6C326.3 228.1 323.2 221.9 317.5 218.7C312.6 216.3 308.3 220.8 305.2 224C300.2 229.4 294.1 234.7 286.3 234.8C276.4 253.9 259.5 270 238.7 276.3C224.2 281.2 208.1 280.8 193.9 275.4C174.5 268.4 158.4 253.4 148.9 235.2C141.3 220.9 137.7 204.6 138.3 188.5C138.7 179.1 141.7 170.2 144.9 161.5C152.9 140.8 164.2 121.5 176.1 102.9C187.1 85.4 199.3 68.5 212.1 52C213.6 50 215.7 47.6 218.4 48.5ZM169.7 169.5C161.4 193.6 168.4 222.4 187.1 239.8C188.5 241.2 190.5 242.1 192.5 241.4C196.8 240.4 198.5 234.5 195.8 231.1C193.5 228.4 190.8 226.1 188.8 223.2C178.5 209 175.5 189.8 181 173.2C182.8 169 178.6 163.3 173.9 165C171.8 165.6 170.3 167.5 169.7 169.5ZM204.6 247.2C209 248.4 212.7 243.5 211.6 239.4C211.1 235.9 207.1 233.2 203.7 234.8C198.4 236.9 198.9 245.9 204.6 247.2Z" id="akkRCVBfq"></path><path d="M466.4 115C479.4 117 491.7 122.7 501.6 131.4C496.6 138 491.6 144.6 486.6 151.2C475.7 141.1 460.3 136.2 445.5 137.7C441.3 138.2 436.8 139.7 434 143.1C431 146.6 431 152.5 434.3 155.8C438.4 159.9 444.3 161.2 449.8 162.4C461.9 164.7 473.7 168.3 484.9 173.3C494.6 177.5 501.9 186.7 503.7 197.2C505.1 205.9 504 215.2 499.8 223C494.8 232.3 485.5 238.8 475.5 241.7C462.2 245.4 447.9 245.4 434.4 242.7C421.5 240.2 409.5 233.8 400.3 224.5C405.2 217.7 410 210.8 414.9 204C424.7 214.2 438.3 220.7 452.6 221C460.2 221.4 468.7 220.2 474.2 214.4C478 210.6 477.9 203.9 474 200.3C469.5 196.2 463.3 194.6 457.5 193.4C446.1 191.1 434.9 187.6 424.2 183.1C418.4 180.7 413.4 176.6 409.9 171.5C404.7 164.2 403.6 154.7 404.9 146.1C406.8 133.9 415.7 124.3 426.1 119.1C438.6 113 452.9 113.2 466.4 115Z" id="b1tvEoovDW"></path><path d="M1042.5 115.6C1042.5 123.5 1042.5 131.4 1042.5 139.3C1021.7 139.3 1000.8 139.3 980 139.3C980 148.2 980 157.1 980 166C1000.4 166 1020.8 166 1041.2 166C1041.2 173.9 1041.2 181.8 1041.2 189.6C1020.8 189.6 1000.4 189.6 980 189.6C980 207 980 224.4 980 241.8C971 241.8 962 241.8 953.1 241.8C953 199.9 953 157.8 953 115.6C982.8 115.6 1012.7 115.6 1042.5 115.6Z" id="aw4yQoDPl"></path><path d="M548.3 125.5C548.3 133.8 548.3 142.2 548.3 150.5C554.5 150.5 560.7 150.5 566.9 150.5C566.9 157.5 566.9 164.5 566.9 171.5C560.7 171.5 554.5 171.5 548.3 171.5C548.3 185.2 548.3 198.8 548.3 212.5C548.2 216 549.4 219.8 552.6 221.6C556.6 223.8 561.5 222.9 565.1 220.4C566.7 226.5 568.4 232.5 570.1 238.6C562.9 244.4 553.2 245 544.5 244C537.6 243.2 530.8 239.7 527.3 233.6C523.9 227.9 523.8 221 523.9 214.5C523.9 200.2 523.9 185.9 523.9 171.5C518.8 171.5 513.8 171.5 508.7 171.5C508.7 164.5 508.7 157.5 508.7 150.5C513.8 150.5 518.8 150.5 523.9 150.5C524 142.2 524 133.8 524 125.5C532.1 125.5 540.2 125.5 548.3 125.5Z" id="a2gA3Sp6GU"></path><path d="M638.2 150.1C650 153.2 659.9 162 665.2 172.9C670 182.5 670.9 193.4 670.7 203.9C648 203.9 625.3 203.9 602.6 203.9C603.9 213.2 610.8 221.7 620 224.1C631.5 227.1 644.5 223.9 653.5 216.1C657 221.3 660.5 226.5 664 231.7C652.4 242.5 635.8 245.7 620.4 244C607.9 243 595.6 237.2 587.7 227.3C578.3 216.2 575.8 200.6 578.4 186.5C580.7 172.8 589.6 160.4 601.8 153.8C612.8 147.9 626.2 147 638.2 150.1ZM602.2 187.6C617.3 187.6 632.3 187.6 647.4 187.6C646.6 179.7 641.8 171.8 634.2 168.8C628.6 166.8 622.3 167 616.6 168.6C608.5 171.3 603.7 179.6 602.2 187.6Z" id="fjhKwMJ2Y"></path><path d="M721.5 148.5C734 147.5 747.6 149.4 757.5 157.7C764.7 163.7 767 173.5 767.1 182.5C767.2 202.3 767.1 222.2 767.1 242C759.1 242 751.1 242 743 242C743 238.9 743 235.8 743 232.7C735.4 241.8 722.8 245.1 711.3 244.3C702.5 243.8 693.9 239.5 688.2 232.7C683.8 227.4 682.1 220.4 682.2 213.6C682.2 207.1 683.9 200.4 688.2 195.4C694 188.8 702.7 185 711.5 184.6C722.9 183.9 735.3 186.8 743.1 195.6C742.7 189.7 743.9 183.6 742 177.8C739.2 171 731.3 168.2 724.4 168.1C714 167.4 703.9 172 696.2 178.8C693.2 173.4 690.2 168 687.1 162.6C696.6 154.3 708.8 149.2 721.5 148.5ZM711.1 224.2C716.3 228.2 723.4 228.5 729.6 227.6C734.8 226.9 739.8 224.3 743.1 220.2C743.1 216.4 743.1 212.6 743.1 208.8C737.9 201.9 728.6 200.2 720.5 201.1C715.3 201.5 710.2 204.2 707.8 208.9C705.4 213.9 706.5 220.7 711.1 224.2Z" id="b31ChodtAd"></path><path d="M847.4 148.4C853.5 148.6 859.7 150.6 864.2 154.8C867.1 157.5 868.9 161.2 870.4 164.9C877.5 154.5 890 148.3 902.5 148.4C909.7 148.1 917.2 150.5 922.3 155.8C927.3 161.1 928.8 168.6 928.8 175.6C928.8 197.8 928.8 219.9 928.8 242.1C920.7 242.1 912.6 242.1 904.6 242.1C904.6 224.6 904.6 207.1 904.6 189.6C904.5 185.3 904.9 180.9 903.3 176.9C901.9 173.1 898.3 170.6 894.4 170.2C885.8 168.7 877.1 173.4 872.2 180.3C871.7 200.9 872.2 221.5 872 242.1C863.9 242.1 855.8 242.1 847.7 242.1C847.7 224.6 847.7 207.1 847.7 189.6C847.6 184.8 848.1 179.7 845.7 175.4C843.4 171 838.1 169.6 833.5 169.9C826.1 170.1 819.5 174.7 815.1 180.4C815.2 201 815.1 221.5 815.1 242.1C807.1 242.1 799.1 242.1 791 242.1C791 211.6 791 181.1 791 150.6C799 150.6 807 150.6 815.1 150.6C815.1 154.5 815.1 158.4 815 162.4C822.9 153.2 835.2 147.5 847.4 148.4Z" id="fro0lhPK"></path><path d="M1123.1 151.8C1137.4 157.4 1148 170.9 1150.8 185.9C1153.1 198.5 1151.2 212.2 1144.1 223C1137.8 233.1 1127.4 240.6 1115.7 242.9C1104.8 245.1 1093 244.6 1082.6 240.4C1068.4 234.4 1058.1 220.6 1055.7 205.5C1053.4 191.8 1056 176.8 1064.9 165.7C1071.5 156.8 1081.9 150.9 1093 149.1C1103 147.6 1113.6 148 1123.1 151.8ZM1083.7 180.8C1079.8 187.6 1079.1 195.9 1080.5 203.6C1082.2 211.9 1088 219.9 1096.5 222.2C1103.3 223.7 1111 223.2 1116.7 218.8C1123.4 213.6 1126.6 204.9 1126.6 196.6C1126.8 188.7 1124.1 180.4 1118 175.1C1112.7 170.2 1104.9 168.9 1098 170.3C1092 171.4 1086.7 175.5 1083.7 180.8Z" id="c1PdN4TuxM"></path><path d="M1204.5 148.3C1217 148.3 1229.3 153 1239.1 160.8C1235.8 166.3 1232.6 171.8 1229.4 177.3C1221.1 169.8 1209.7 165.6 1198.6 167C1194.8 167.6 1190.6 169.2 1188.6 172.7C1187.1 175.4 1188.5 178.8 1191 180.3C1194.8 182.7 1199.4 183.2 1203.7 184.1C1212.5 185.6 1221.1 188.2 1229.2 192.1C1239 197.1 1243.5 209.1 1241.7 219.7C1240.4 228.9 1233.4 236.4 1225.2 240.2C1215.2 244.9 1203.9 245.1 1193.1 243.9C1181.6 242.4 1170.2 238.1 1161.5 230.3C1165 224.7 1168.5 219.1 1171.9 213.4C1181.3 221.1 1193.2 226.3 1205.5 225.8C1209.7 225.6 1214.4 224.7 1217.2 221.2C1219.6 218.5 1219.5 213.8 1216.6 211.6C1211.2 207.2 1203.8 207.5 1197.4 205.8C1189.4 203.7 1180.9 201.9 1174 197.2C1162.4 188.6 1161.5 170.2 1171 160C1179.3 150.6 1192.6 148.1 1204.5 148.3Z" id="bYKndp5sc"></path><path d="M1294.5 148.3C1307.2 148.2 1319.6 152.9 1329.4 160.7C1326.2 166.2 1322.9 171.7 1319.7 177.2C1311.3 169.6 1299.7 165.4 1288.4 167C1284.9 167.6 1281.2 169.1 1279.1 172.1C1277.4 174.5 1278.1 177.8 1280.3 179.6C1283.7 182.3 1288.1 182.9 1292.2 183.7C1301.7 185.3 1311.1 187.9 1319.7 192.2C1333.5 199.7 1336.3 220.6 1326 232.1C1318.7 240.6 1307.3 244 1296.5 244.3C1280.6 244.9 1263.8 241 1251.7 230.2C1255.2 224.6 1258.6 219 1262.1 213.4C1272.6 222.1 1286.8 227.7 1300.5 225.2C1305.7 224.4 1311 219.1 1308.4 213.6C1305.1 208.5 1298.5 207.9 1293.1 206.8C1283.5 204.8 1273.6 202.9 1265.1 197.8C1253 189.7 1251.5 170.7 1261.2 160.2C1269.4 150.8 1282.6 148.2 1294.5 148.3Z" id="b3Sjk7idKC"></path></defs><g><g><g><use xlink:href="#akkRCVBfq" opacity="1" fill="#ffffff" fill-opacity="1"></use><g><use xlink:href="#akkRCVBfq" opacity="1" fill-opacity="0" stroke="#000000" stroke-width="1" stroke-opacity="0"></use></g></g><g><use xlink:href="#b1tvEoovDW" opacity="1" fill="#ffffff" fill-opacity="1"></use><g><use xlink:href="#b1tvEoovDW" opacity="1" fill-opacity="0" stroke="#000000" stroke-width="1" stroke-opacity="0"></use></g></g><g><use xlink:href="#aw4yQoDPl" opacity="1" fill="#ffffff" fill-opacity="1"></use><g><use xlink:href="#aw4yQoDPl" opacity="1" fill-opacity="0" stroke="#000000" stroke-width="1" stroke-opacity="0"></use></g></g><g><use xlink:href="#a2gA3Sp6GU" opacity="1" fill="#ffffff" fill-opacity="1"></use><g><use xlink:href="#a2gA3Sp6GU" opacity="1" fill-opacity="0" stroke="#000000" stroke-width="1" stroke-opacity="0"></use></g></g><g><use xlink:href="#fjhKwMJ2Y" opacity="1" fill="#ffffff" fill-opacity="1"></use><g><use xlink:href="#fjhKwMJ2Y" opacity="1" fill-opacity="0" stroke="#000000" stroke-width="1" stroke-opacity="0"></use></g></g><g><use xlink:href="#b31ChodtAd" opacity="1" fill="#ffffff" fill-opacity="1"></use><g><use xlink:href="#b31ChodtAd" opacity="1" fill-opacity="0" stroke="#000000" stroke-width="1" stroke-opacity="0"></use></g></g><g><use xlink:href="#fro0lhPK" opacity="1" fill="#ffffff" fill-opacity="1"></use><g><use xlink:href="#fro0lhPK" opacity="1" fill-opacity="0" stroke="#000000" stroke-width="1" stroke-opacity="0"></use></g></g><g><use xlink:href="#c1PdN4TuxM" opacity="1" fill="#ffffff" fill-opacity="1"></use><g><use xlink:href="#c1PdN4TuxM" opacity="1" fill-opacity="0" stroke="#000000" stroke-width="1" stroke-opacity="0"></use></g></g><g><use xlink:href="#bYKndp5sc" opacity="1" fill="#ffffff" fill-opacity="1"></use><g><use xlink:href="#bYKndp5sc" opacity="1" fill-opacity="0" stroke="#000000" stroke-width="1" stroke-opacity="0"></use></g></g><g><use xlink:href="#b3Sjk7idKC" opacity="1" fill="#ffffff" fill-opacity="1"></use><g><use xlink:href="#b3Sjk7idKC" opacity="1" fill-opacity="0" stroke="#000000" stroke-width="1" stroke-opacity="0"></use></g></g></g></g></svg>